<svg width="700" height="700" viewBox="0 0 700 700" xmlns="http://www.w3.org/2000/svg" xmlns:xlink="http://www.w3.org/1999/xlink">
  <defs>
    <g id="leaf">
      <path d="M0 0 Q14 -22 0 -46 Q-14 -22 0 0" fill="#C3D2AF"/>
      <path d="M0 -6 L0 -40" stroke="#B0C295" stroke-width="1.5" fill="none"/>
      <circle cx="-4" cy="-16" r="4" fill="#CBD8B8" opacity="0.6"/>
      <circle cx="5" cy="-26" r="3.4" fill="#B7C79E" opacity="0.7"/>
      <circle cx="-2" cy="-33" r="2.8" fill="#CFDCBE" opacity="0.6"/>
      <circle cx="3" cy="-10" r="2.6" fill="#CFDCBE" opacity="0.55"/>
      <circle cx="-6" cy="-24" r="2.2" fill="#B7C79E" opacity="0.5"/>
    </g>
    <g id="sprig">
      <use xlink:href="#leaf" transform="rotate(-30) scale(0.8)"/>
      <use xlink:href="#leaf" transform="rotate(30) scale(0.7)"/>
      <use xlink:href="#leaf" transform="scale(1.0)"/>
    </g>
  </defs>
  <use xlink:href="#leaf" transform="translate(80 120) rotate(-25) scale(1.6)" opacity="0.55"/>
  <use xlink:href="#leaf" transform="translate(210 320) rotate(45) scale(1.1)" opacity="0.4"/>
  <use xlink:href="#sprig" transform="translate(340 140) rotate(160) scale(1.2)" opacity="0.45"/>
  <use xlink:href="#leaf" transform="translate(480 90) rotate(15) scale(1.5)" opacity="0.5"/>
  <use xlink:href="#leaf" transform="translate(620 230) rotate(-70) scale(1.0)" opacity="0.45"/>
  <use xlink:href="#leaf" transform="translate(120 480) rotate(-120) scale(1.3)" opacity="0.45"/>
  <use xlink:href="#sprig" transform="translate(300 560) rotate(35) scale(1.0)" opacity="0.4"/>
  <use xlink:href="#leaf" transform="translate(470 420) rotate(85) scale(0.9)" opacity="0.35"/>
  <use xlink:href="#leaf" transform="translate(590 550) rotate(-150) scale(1.4)" opacity="0.5"/>
  <use xlink:href="#leaf" transform="translate(60 650) rotate(60) scale(0.9)" opacity="0.4"/>
  <use xlink:href="#leaf" transform="translate(400 680) rotate(-40) scale(1.1)" opacity="0.45"/>
  <use xlink:href="#leaf" transform="translate(660 60) rotate(120) scale(0.8)" opacity="0.4"/>
  <use xlink:href="#leaf" transform="translate(240 40) rotate(75) scale(0.9)" opacity="0.35"/>
</svg>
